<svg xmlns="http://www.w3.org/2000/svg" viewBox="0 0 113.48 113.48"><defs></defs><title>illustrator</title><g id="Camada_2" data-name="Camada 2"><g id="Camada_1-2" data-name="Camada 1"><path d="M97.19,0H16.29A16.29,16.29,0,0,0,0,16.29v80.9a16.29,16.29,0,0,0,16.29,16.29h80.9a16.29,16.29,0,0,0,16.29-16.29V16.29A16.29,16.29,0,0,0,97.19,0ZM62.5,79.43,56.94,63H38.46L33.05,79.43h-7l17.7-52.11h8.12L69.69,79.43Zm21.19,0H76.88V42h6.81ZM80.13,35.67A4,4,0,0,1,76,31.5a4.14,4.14,0,0,1,4.25-4.25,4,4,0,0,1,4.18,4.25A4,4,0,0,1,80.13,35.67Z"/><path class="cls-1" d="M47.74,33.28h-.16C46.81,36.37,46,39.54,45,42.71l-5.1,15.08H55.54l-5.1-15C49.28,39.38,48.51,36.29,47.74,33.28Z"/></g></g></svg>