<svg xmlns="http://www.w3.org/2000/svg" viewBox="0 0 113.48 113.48"><defs></defs><title>indesign</title><g id="Camada_2" data-name="Camada 2"><g id="Camada_1-2" data-name="Camada 1"><path d="M97.19,0H16.29A16.29,16.29,0,0,0,0,16.29v80.9a16.29,16.29,0,0,0,16.29,16.29h80.9a16.29,16.29,0,0,0,16.29-16.29V16.29A16.29,16.29,0,0,0,97.19,0ZM38.3,79.43H31.58V27.32H38.3Zm38,0L76,72.94h-.15c-2.09,4.17-6.65,7.34-12.76,7.34-9,0-16-7.65-16-19-.08-12.44,7.65-20.1,16.77-20.1,5.73,0,9.59,2.71,11.29,5.72h.16V24.54h6.8V69.77c0,3.32.08,7.11.31,9.66Z"/><path class="cls-1" d="M65.21,46.5C58.17,46.5,54,52.68,54,61c0,7.58,3.71,13.84,11,13.84a10.23,10.23,0,0,0,10-8.11,12,12,0,0,0,.31-2.94v-6.5A12.11,12.11,0,0,0,75,54.38,10,10,0,0,0,65.21,46.5Z"/></g></g></svg>