<svg xmlns="http://www.w3.org/2000/svg" viewBox="0 0 113.48 113.48"><defs></defs><title> photoshop</title><g id="Camada_2" data-name="Camada 2"><g id="Camada_1-2" data-name="Camada 1"><path class="cls-1" d="M40.66,32.27a28.19,28.19,0,0,0-6.34.54V53.07a22.93,22.93,0,0,0,5.57.54C48,53.61,53,49.67,53,42.48,53,35.6,48.08,32.27,40.66,32.27Z"/><path class="cls-1" d="M97.19,0H16.29A16.29,16.29,0,0,0,0,16.29v80.9a16.29,16.29,0,0,0,16.29,16.29h80.9a16.29,16.29,0,0,0,16.29-16.29V16.29A16.29,16.29,0,0,0,97.19,0ZM55.66,53.3C52.1,57.09,46.31,59,39.73,59a23.53,23.53,0,0,1-5.41-.46V79.43H27.59V27.94a78.24,78.24,0,0,1,12.92-1c6.65,0,11.52,1.54,14.61,4.33a14,14,0,0,1,4.56,10.9C59.68,46.88,58.29,50.59,55.66,53.3Zm19,26.91a21.43,21.43,0,0,1-10.52-2.55l1.71-5.18a17.85,17.85,0,0,0,9,2.7c5,0,7.27-2.47,7.27-5.57s-1.93-5-7-6.88c-6.72-2.39-9.89-6.11-9.89-10.59,0-6,4.87-11,12.91-11a18.65,18.65,0,0,1,9.2,2.32l-1.7,5A14.56,14.56,0,0,0,78,46.26c-4,0-6.26,2.32-6.26,5.11,0,3.09,2.24,4.48,7.11,6.34,6.5,2.47,9.82,5.72,9.82,11.29C88.67,75.57,83.57,80.21,74.68,80.21Z"/></g></g></svg>